<svg width="24" height="24" viewBox="0 0 24 24" fill="none" xmlns="http://www.w3.org/2000/svg">
<g clip-path="url(#clip0_3_106)">
<path d="M3.20564 8.82264C1.17666 12.3436 2.46652 17.6867 4.71025 20.9265C5.83022 22.5462 6.96412 24.0002 8.5172 24.0002C8.54647 24.0002 8.57582 23.9996 8.60588 23.9984C9.33556 23.9693 9.86285 23.7447 10.3727 23.5276C10.9451 23.2836 11.537 23.0314 12.4656 23.0314C13.3489 23.0314 13.9126 23.2754 14.4578 23.5114C14.9951 23.7438 15.5485 23.9843 16.3662 23.9689C18.1156 23.9363 19.1897 22.3675 20.1374 20.9834C21.1262 19.5383 21.6223 18.1352 21.7897 17.599L21.7964 17.5777C21.8283 17.4824 21.7833 17.3784 21.6919 17.3364C21.6894 17.3352 21.6801 17.3314 21.6775 17.3303C21.3695 17.2043 18.6672 16.0055 18.6387 12.738C18.6124 10.0834 20.666 8.67762 21.0779 8.42283L21.0971 8.41087C21.1417 8.38214 21.1728 8.33658 21.1833 8.28449C21.1938 8.23248 21.1828 8.17834 21.1529 8.13459C19.7354 6.0602 17.5628 5.74757 16.6881 5.70996C16.5612 5.69729 16.4302 5.69092 16.2986 5.69092C15.2713 5.69092 14.2871 6.07893 13.4965 6.39069C12.9507 6.60591 12.4792 6.79177 12.1541 6.79177C11.7888 6.79177 11.3147 6.60363 10.7656 6.38582C10.0315 6.09443 9.19935 5.76426 8.31843 5.76426C8.29742 5.76426 8.27673 5.76449 8.25634 5.76489C6.20808 5.79502 4.27266 6.96685 3.20564 8.82264Z" fill="black"/>
<path d="M16.6899 0.000151195C15.4496 0.0506692 13.9617 0.814184 13.0723 1.85586C12.3165 2.73143 11.5782 4.19126 11.7727 5.66273C11.7849 5.7548 11.8598 5.82586 11.9524 5.83302C12.0361 5.83955 12.1216 5.84285 12.2067 5.84293C13.4196 5.84293 14.7279 5.17195 15.6214 4.09156C16.5618 2.95073 17.0374 1.48666 16.8935 0.175233C16.8822 0.0724659 16.7918 -0.00386192 16.6899 0.000151195Z" fill="black"/>
</g>
<defs>
<clipPath id="clip0_3_106">
<rect width="24" height="24" fill="white"/>
</clipPath>
</defs>
</svg>
