<svg width="24" height="24" viewBox="0 0 24 24" fill="none" xmlns="http://www.w3.org/2000/svg">
<path d="M20.7659 0H3.23423C1.44815 0 0.000183105 1.44791 0.000183105 3.23405V20.7658C0.000183105 22.552 1.44809 23.9999 3.23423 23.9999H11.8808L11.8955 15.4236H9.6674C9.37784 15.4236 9.14282 15.1895 9.1417 14.8999L9.13102 12.1354C9.1299 11.8443 9.36563 11.6077 9.65677 11.6077H11.8808V8.93651C11.8808 5.83661 13.7741 4.14869 16.5394 4.14869H18.8085C19.0988 4.14869 19.3343 4.38406 19.3343 4.67444V7.00547C19.3343 7.29573 19.099 7.53104 18.8088 7.53122L17.4163 7.53187C15.9124 7.53187 15.6212 8.24648 15.6212 9.29522V11.6078H18.9257C19.2406 11.6078 19.4848 11.8827 19.4477 12.1954L19.1201 14.9599C19.0887 15.2244 18.8644 15.4237 18.598 15.4237H15.6359L15.6212 24H20.766C22.5521 24 24 22.5521 24 20.766V3.23405C23.9999 1.44791 22.552 0 20.7659 0Z" fill="#475993"/>
</svg>
